PathFileType	4	(x/y/z)	S06_PSF_T02
DataRate	CameraRate	NumFrames	NumMarkers	Units	OrigDataRate	OrigDataStartFrame	OrigNumFrames
240	240	4	51	mm	240	151	402
Frame#	Time	Sternum			R.Acromium			L.Acromium			Top.Head			R.ASIS			L.ASIS			R.PSIS			L.PSIS			R.Great.Tro			L.Great.Tro			R.Iliac.Crest			L.Iliac.Crest			V.Sacral			R.Thigh.Upper.Post			R.Thigh.Lower.Ant			R.Thigh.Lower.Post			R.Thigh.Upper.Ant			R.Knee.Lat			R.Knee.Med			R.Shank.Upper.Post			R.Shank.Lower.Ant			R.Shank.Lower.Post			R.Shank.Upper.Ant			R.Ankle.Lat			R.Ankle.Med			R.Heel.Upper			R.Heel.Med			R.Heel.Lat			R.Toe.Lat			R.Toe.Med			R.Toe.Tip			L.Thigh.Upper.Post			L.Thigh.Lower.Ant			L.Thigh.Lower.Post			L.Thigh.Upper.Ant			L.Knee.Lat			L.Knee.Med			L.Shank.Upper.Post			L.Shank.Lower.Ant			L.Shank.Lower.Post			L.Shank.Upper.Ant			L.Ankle.Lat			L.Ankle.Med			L.Heel.Upper			L.Heel.Med			L.Heel.Lat			L.Toe.Lat			L.Toe.Med			L.Toe.Tip			Cervical.Spine			Back			
		X1	Y1	Z1	X2	Y2	Z2	X3	Y3	Z3	X4	Y4	Z4	X5	Y5	Z5	X6	Y6	Z6	X7	Y7	Z7	X8	Y8	Z8	X9	Y9	Z9	X10	Y10	Z10	X11	Y11	Z11	X12	Y12	Z12	X13	Y13	Z13	X14	Y14	Z14	X15	Y15	Z15	X16	Y16	Z16	X17	Y17	Z17	X18	Y18	Z18	X19	Y19	Z19	X20	Y20	Z20	X21	Y21	Z21	X22	Y22	Z22	X23	Y23	Z23	X24	Y24	Z24	X25	Y25	Z25	X26	Y26	Z26	X27	Y27	Z27	X28	Y28	Z28	X29	Y29	Z29	X30	Y30	Z30	X31	Y31	Z31	X32	Y32	Z32	X33	Y33	Z33	X34	Y34	Z34	X35	Y35	Z35	X36	Y36	Z36	X37	Y37	Z37	X38	Y38	Z38	X39	Y39	Z39	X40	Y40	Z40	X41	Y41	Z41	X42	Y42	Z42	X43	Y43	Z43	X44	Y44	Z44	X45	Y45	Z45	X46	Y46	Z46	X47	Y47	Z47	X48	Y48	Z48	X49	Y49	Z49	X50	Y50	Z50	X51	Y51	Z51	

151	0.625	-662.68	1273.4	334.98	-805.22	1477.5	498.09	-794.77	1479.7	147.6	-755.49	1797.4	326.55	-713.27	1039	455.81	-698.17	1032.6	202.45	NaN	NaN	NaN	-905.79	1059.6	276.82	-764.52	961.72	503.42	-807.81	963.18	146.87	-805.58	1110.9	484.83	-769.68	1106.3	165.22	-920.83	1022.2	319.04	-704.72	720.02	485.57	-627.9	657.94	448.27	-693.11	633.82	459.21	-635.64	746.23	470.49	-637.73	538.85	447.09	-632.46	546.89	317.88	-629.15	308.01	437.24	-554.88	259.23	419.78	-615.81	232.48	421.93	-570.1	333.31	433.94	-552.2	111.72	397.65	-537.04	127.76	313.82	-601.24	66.114	345.32	-585.89	37.689	315.07	-588.12	35.535	379.46	-413.59	59.982	423.19	-392.27	81.924	307.15	-332.06	111.02	353.93	-813.69	709.41	168.7	-780.42	617.48	220.53	-850.57	627.37	184.7	-747.48	704.92	198.71	-900.15	538.37	203.42	-863.41	533.94	320.87	-1055.2	362.12	220.9	-1031.6	276.62	223.07	-1097	303.61	240.46	-995.03	335.86	209.22	-1130.1	160.39	243.67	-1108.6	174.71	330.09	-1221	156.96	287.25	-1227	130.53	320.19	-1222.5	130.13	258.51	-1064.6	46.887	227.5	-1051.1	48.179	347.6	-979.15	41.809	297.39	-852.4	1530.9	321.02	-905.89	1257.7	315.73
152	0.62917	-656.82	1273.9	335.5	-799.61	1477.8	498.5	-788.77	1479.9	147.96	-749.87	1797.7	326.81	-707.32	1039.5	456.28	-692.02	1033	202.96	NaN	NaN	NaN	-899.63	1059.9	276.97	-758.57	962.11	503.75	-801.42	963.31	147.16	-799.68	1111.2	485.15	-763.3	1106.6	165.57	-914.76	1022.5	319.17	-698.62	720.34	485.81	-622.32	658.14	448.36	-687.54	634.13	459.59	-629.79	746.48	470.48	-632.36	538.99	447.34	-627.91	546.83	318.15	-625.29	308.05	437.76	-551.56	258.69	419.76	-612.65	232.4	422.41	-566.09	332.89	433.97	-550.47	111.26	397.77	-535.42	127.11	313.8	-600.37	66.696	345.45	-585.58	37.998	315.14	-587.74	35.879	379.53	-412.74	57.767	422.84	-391.26	79.307	306.75	-330.45	107.52	353.37	-806.32	709.26	168.4	-772.44	617.37	219.84	-842.68	626.97	184.16	-739.97	705.07	198.24	-892.05	537.98	202.75	-854.69	533.07	320.03	-1049.1	363.72	220.41	-1026.6	277.96	222.14	-1091.5	305.76	239.91	-989.22	336.77	208.29	-1126.3	162.76	242.82	-1104.7	176.86	329.12	-1216.9	161.51	286.63	-1223.4	135.53	319.8	-1219.2	134.61	258.1	-1063.8	47.158	227.4	-1050.3	48.887	347.42	-978.94	41.611	297.39	-846.72	1531.1	321.37	-899.98	1257.9	316.01
153	0.63333	-650.97	1274.4	335.99	-793.98	1478.1	498.91	-782.79	1480.2	148.33	-744.24	1798	327.07	-701.36	1040	456.73	-685.9	1033.4	203.46	NaN	NaN	NaN	-893.48	1060.2	277.12	-752.61	962.57	504.09	-795.02	963.45	147.45	-793.78	1111.6	485.46	-756.93	1107	165.92	-908.7	1022.8	319.31	-692.53	720.72	486.1	-616.73	658.4	448.49	-681.95	634.5	460.04	-623.94	746.79	470.47	-626.98	539.17	447.64	-623.41	546.78	318.46	-621.48	308.12	438.38	-548.31	258.2	419.8	-609.55	232.36	422.97	-562.13	332.5	434.06	-548.81	110.84	397.95	-533.84	126.54	313.83	-599.53	67.263	345.62	-585.26	38.335	315.22	-587.36	36.21	379.63	-411.97	55.635	422.58	-390.3	76.832	306.45	-328.93	104.15	352.94	-798.79	709.09	168.08	-764.26	617.25	219.12	-834.59	626.53	183.58	-732.3	705.22	197.74	-883.7	537.56	202.02	-845.7	532.14	319.13	-1042.7	365.36	219.86	-1021.4	279.33	221.15	-1085.8	307.95	239.31	-983.16	337.71	207.31	-1122.2	165.19	241.91	-1100.5	179.08	328.1	-1212.5	166.23	285.92	-1219.5	140.74	319.33	-1215.6	139.3	257.62	-1063	47.509	227.29	-1049.4	49.668	347.22	-978.71	41.388	297.39	-841.04	1531.4	321.72	-894.07	1258.1	316.3
154	0.6375	-645.13	1274.9	336.48	-788.34	1478.5	499.32	-776.84	1480.5	148.7	-738.6	1798.4	327.33	-695.41	1040.6	457.18	-679.8	1033.8	203.97	NaN	NaN	NaN	-887.36	1060.5	277.26	-746.65	963.09	504.44	-788.63	963.6	147.75	-787.87	1112	485.78	-750.58	1107.4	166.27	-902.65	1023.2	319.46	-686.45	721.16	486.44	-611.14	658.73	448.66	-676.34	634.92	460.56	-618.09	747.18	470.48	-621.62	539.38	447.97	-618.96	546.74	318.82	-617.74	308.22	439.07	-545.12	257.74	419.91	-606.51	232.36	423.6	-558.24	332.15	434.22	-547.22	110.47	398.16	-532.32	126.03	313.93	-598.73	67.811	345.8	-584.94	38.692	315.33	-587	36.527	379.75	-411.27	53.601	422.4	-389.38	74.502	306.23	-327.5	100.92	352.62	-791.11	708.9	167.74	-755.88	617.13	218.36	-826.29	626.06	182.97	-724.49	705.39	197.22	-875.11	537.1	201.24	-836.46	531.15	318.17	-1036	367.02	219.25	-1015.9	280.73	220.09	-1079.8	310.18	238.66	-976.84	338.66	206.27	-1117.9	167.7	240.93	-1096.1	181.35	327.02	-1207.7	171.12	285.12	-1215.3	146.17	318.75	-1211.7	144.19	257.04	-1062.1	47.955	227.16	-1048.4	50.537	346.99	-978.44	41.136	297.38	-835.36	1531.7	322.08	-888.17	1258.4	316.59
